<mxfile host="www.draw.io" modified="2020-01-16T07:05:39.689Z" agent="Mozilla/5.0 (X11; Linux x86_64) AppleWebKit/537.36 (KHTML, like Gecko) Chrome/78.0.3904.97 Safari/537.36" etag="lPXv2GBKBp-zzbeC7yXE" version="12.5.4" type="github">
  <diagram id="27Ec4PnAqDiWOBETc-EE" name="Page-1">
    <mxGraphModel dx="3638" dy="1669" grid="1" gridSize="10" guides="1" tooltips="1" connect="1" arrows="1" fold="1" page="1" pageScale="1" pageWidth="827" pageHeight="1169" math="0" shadow="0">
      <root>
        <mxCell id="0"/>
        <mxCell id="1" parent="0"/>
        <mxCell id="7bUrUw1-GXe85dg-xqV_-51" value="" style="shape=ext;rounded=1;html=1;whiteSpace=wrap;dashed=1;dashPattern=1 4;strokeColor=#000000;fillColor=none;fontSize=16;fontColor=#FF0000;strokeWidth=3;" vertex="1" parent="1">
          <mxGeometry x="1340" y="90" width="1300" height="320" as="geometry"/>
        </mxCell>
        <mxCell id="7bUrUw1-GXe85dg-xqV_-49" value="" style="shape=ext;rounded=1;html=1;whiteSpace=wrap;dashed=1;dashPattern=1 4;strokeColor=#000000;fillColor=none;fontSize=16;fontColor=#FF0000;strokeWidth=3;" vertex="1" parent="1">
          <mxGeometry x="-20" y="740" width="1300" height="270" as="geometry"/>
        </mxCell>
        <mxCell id="7bUrUw1-GXe85dg-xqV_-48" value="" style="shape=ext;rounded=1;html=1;whiteSpace=wrap;dashed=1;dashPattern=1 4;strokeColor=#000000;fillColor=none;fontSize=16;fontColor=#FF0000;strokeWidth=3;" vertex="1" parent="1">
          <mxGeometry x="-20" y="265" width="1300" height="435" as="geometry"/>
        </mxCell>
        <mxCell id="OCoIuBDUxnG97SgDx9cD-35" value="" style="shape=ext;rounded=1;html=1;whiteSpace=wrap;dashed=1;dashPattern=1 4;strokeColor=#000000;fillColor=none;fontSize=16;fontColor=#FF0000;strokeWidth=3;" parent="1" vertex="1">
          <mxGeometry x="-20" y="110" width="1300" height="120" as="geometry"/>
        </mxCell>
        <mxCell id="OCoIuBDUxnG97SgDx9cD-1" value="房间实体" style="swimlane;fontStyle=0;childLayout=stackLayout;horizontal=1;startSize=29;fillColor=#e0e0e0;horizontalStack=0;resizeParent=1;resizeParentMax=0;resizeLast=0;collapsible=1;marginBottom=0;swimlaneFillColor=#ffffff;align=center;fontSize=16;" parent="1" vertex="1">
          <mxGeometry x="20" y="274" width="340" height="410" as="geometry"/>
        </mxCell>
        <mxCell id="OCoIuBDUxnG97SgDx9cD-4" value="房间号 roomId&#xa;" style="shape=partialRectangle;top=0;left=0;right=0;bottom=1;align=left;verticalAlign=middle;fillColor=none;spacingLeft=60;spacingRight=4;overflow=hidden;rotatable=0;points=[[0,0.5],[1,0.5]];portConstraint=eastwest;dropTarget=0;fontStyle=5;fontSize=16;" parent="OCoIuBDUxnG97SgDx9cD-1" vertex="1">
          <mxGeometry y="29" width="340" height="81" as="geometry"/>
        </mxCell>
        <mxCell id="OCoIuBDUxnG97SgDx9cD-5" value="key" style="shape=partialRectangle;fontStyle=1;top=0;left=0;bottom=0;fillColor=none;align=left;verticalAlign=middle;spacingLeft=4;spacingRight=4;overflow=hidden;rotatable=0;points=[];portConstraint=eastwest;part=1;fontSize=16;" parent="OCoIuBDUxnG97SgDx9cD-4" vertex="1" connectable="0">
          <mxGeometry width="60" height="81" as="geometry"/>
        </mxCell>
        <mxCell id="7bUrUw1-GXe85dg-xqV_-29" value="约跑信息&#xa;(距离，目的地，备注...)" style="shape=partialRectangle;top=0;left=0;right=0;bottom=0;align=left;verticalAlign=top;fillColor=none;spacingLeft=60;spacingRight=4;overflow=hidden;rotatable=0;points=[[0,0.5],[1,0.5]];portConstraint=eastwest;dropTarget=0;fontSize=16;strokeColor=#FF0000;" vertex="1" parent="OCoIuBDUxnG97SgDx9cD-1">
          <mxGeometry y="110" width="340" height="150" as="geometry"/>
        </mxCell>
        <mxCell id="7bUrUw1-GXe85dg-xqV_-30" value="房间&#xa;信息" style="shape=partialRectangle;top=0;left=0;bottom=0;fillColor=none;align=left;verticalAlign=top;spacingLeft=4;spacingRight=4;overflow=hidden;rotatable=0;points=[];portConstraint=eastwest;part=1;fontSize=16;" vertex="1" connectable="0" parent="7bUrUw1-GXe85dg-xqV_-29">
          <mxGeometry width="60" height="150" as="geometry"/>
        </mxCell>
        <mxCell id="OCoIuBDUxnG97SgDx9cD-6" value="Uid&#xa;状态 State &#xa;-0准备约跑 -1约跑进行中 -2约跑已结束&#xa;RunId 关联的跑步id" style="shape=partialRectangle;top=0;left=0;right=0;bottom=0;align=left;verticalAlign=top;fillColor=none;spacingLeft=60;spacingRight=4;overflow=hidden;rotatable=0;points=[[0,0.5],[1,0.5]];portConstraint=eastwest;dropTarget=0;fontSize=16;strokeColor=#FF0000;" parent="OCoIuBDUxnG97SgDx9cD-1" vertex="1">
          <mxGeometry y="260" width="340" height="150" as="geometry"/>
        </mxCell>
        <mxCell id="OCoIuBDUxnG97SgDx9cD-7" value="房客&#xa;信息" style="shape=partialRectangle;top=0;left=0;bottom=0;fillColor=none;align=left;verticalAlign=top;spacingLeft=4;spacingRight=4;overflow=hidden;rotatable=0;points=[];portConstraint=eastwest;part=1;fontSize=16;" parent="OCoIuBDUxnG97SgDx9cD-6" vertex="1" connectable="0">
          <mxGeometry width="60" height="150" as="geometry"/>
        </mxCell>
        <mxCell id="OCoIuBDUxnG97SgDx9cD-11" value="跑步记录表" style="swimlane;childLayout=stackLayout;horizontal=1;startSize=30;horizontalStack=0;fillColor=#008cff;fontColor=#FFFFFF;rounded=1;fontSize=18;fontStyle=0;strokeWidth=2;resizeParent=0;resizeLast=1;shadow=0;dashed=0;align=center;" parent="1" vertex="1">
          <mxGeometry x="1370" y="115" width="240" height="240" as="geometry"/>
        </mxCell>
        <mxCell id="OCoIuBDUxnG97SgDx9cD-14" value="&lt;div style=&quot;font-size: 24px&quot;&gt;&lt;font style=&quot;font-size: 24px&quot; color=&quot;#000000&quot;&gt;runId 跑步id&lt;/font&gt;&lt;/div&gt;&lt;div style=&quot;font-size: 24px&quot;&gt;&lt;font style=&quot;font-size: 24px&quot; color=&quot;#000000&quot;&gt;uid&lt;/font&gt;&lt;/div&gt;&lt;div style=&quot;font-size: 24px&quot;&gt;&lt;font style=&quot;font-size: 24px&quot;&gt;&lt;font color=&quot;#000000&quot; style=&quot;font-size: 24px&quot;&gt;runType 跑步类型&amp;nbsp;&lt;/font&gt;&lt;span style=&quot;color: rgb(0 , 0 , 0)&quot;&gt;&amp;nbsp;&lt;/span&gt;&lt;/font&gt;&lt;/div&gt;&lt;div style=&quot;font-size: 24px&quot;&gt;&lt;font style=&quot;font-size: 24px&quot;&gt;&lt;font color=&quot;#000000&quot; style=&quot;font-size: 24px&quot;&gt;isEnd 是否已结束&amp;nbsp;&lt;/font&gt;&lt;span style=&quot;color: rgb(0 , 0 , 0)&quot;&gt;&amp;nbsp;&lt;/span&gt;&lt;/font&gt;&lt;/div&gt;&lt;div style=&quot;font-size: 24px&quot;&gt;&lt;font style=&quot;font-size: 24px&quot;&gt;&lt;font color=&quot;#000000&quot; style=&quot;font-size: 24px&quot;&gt;isExpire 是否已过期&amp;nbsp;&lt;/font&gt;&lt;span style=&quot;color: rgb(0 , 0 , 0)&quot;&gt;&amp;nbsp;&lt;/span&gt;&lt;/font&gt;&lt;/div&gt;" style="text;html=1;align=left;verticalAlign=middle;resizable=0;points=[];autosize=1;fontColor=#FF0000;" parent="OCoIuBDUxnG97SgDx9cD-11" vertex="1">
          <mxGeometry y="30" width="240" height="210" as="geometry"/>
        </mxCell>
        <mxCell id="OCoIuBDUxnG97SgDx9cD-30" value="玩家-房间锁" style="swimlane;fontStyle=0;childLayout=stackLayout;horizontal=1;startSize=26;fillColor=#e0e0e0;horizontalStack=0;resizeParent=1;resizeParentMax=0;resizeLast=0;collapsible=1;marginBottom=0;swimlaneFillColor=#ffffff;align=center;fontSize=16;strokeColor=#000000;" parent="1" vertex="1">
          <mxGeometry x="20" y="140" width="340" height="78" as="geometry"/>
        </mxCell>
        <mxCell id="OCoIuBDUxnG97SgDx9cD-31" value="key: $uid" style="text;strokeColor=none;fillColor=none;spacingLeft=4;spacingRight=4;overflow=hidden;rotatable=0;points=[[0,0.5],[1,0.5]];portConstraint=eastwest;fontSize=16;" parent="OCoIuBDUxnG97SgDx9cD-30" vertex="1">
          <mxGeometry y="26" width="340" height="26" as="geometry"/>
        </mxCell>
        <mxCell id="OCoIuBDUxnG97SgDx9cD-32" value="value: $roomId" style="text;strokeColor=none;fillColor=none;spacingLeft=4;spacingRight=4;overflow=hidden;rotatable=0;points=[[0,0.5],[1,0.5]];portConstraint=eastwest;fontSize=16;" parent="OCoIuBDUxnG97SgDx9cD-30" vertex="1">
          <mxGeometry y="52" width="340" height="26" as="geometry"/>
        </mxCell>
        <mxCell id="OCoIuBDUxnG97SgDx9cD-36" value="约跑模块" style="text;align=center;fontStyle=1;verticalAlign=middle;spacingLeft=3;spacingRight=3;strokeColor=none;rotatable=0;points=[[0,0.5],[1,0.5]];portConstraint=eastwest;fillColor=none;fontSize=24;fontColor=#000000;" parent="1" vertex="1">
          <mxGeometry y="30" width="110" height="50" as="geometry"/>
        </mxCell>
        <mxCell id="OCoIuBDUxnG97SgDx9cD-37" value="跑步模块" style="text;align=center;fontStyle=1;verticalAlign=middle;spacingLeft=3;spacingRight=3;strokeColor=none;rotatable=0;points=[[0,0.5],[1,0.5]];portConstraint=eastwest;fillColor=none;fontSize=24;fontColor=#000000;" parent="1" vertex="1">
          <mxGeometry x="1360" y="20" width="110" height="50" as="geometry"/>
        </mxCell>
        <mxCell id="7bUrUw1-GXe85dg-xqV_-2" value="redis.Set(k=10086,v=A1)" style="text;html=1;strokeColor=none;fillColor=none;align=left;verticalAlign=middle;whiteSpace=wrap;rounded=0;fontSize=24;fontColor=#000000;" vertex="1" parent="1">
          <mxGeometry x="440" y="170" width="350" height="70" as="geometry"/>
        </mxCell>
        <mxCell id="7bUrUw1-GXe85dg-xqV_-3" value="&lt;div&gt;redis.HSet(key=A1)&lt;/div&gt;&lt;div&gt;field1:房间基本信息&lt;/div&gt;&lt;div&gt;(约跑开始时间,约跑地点...)&lt;/div&gt;&lt;div&gt;field2:房客信息&lt;/div&gt;&lt;div&gt;&lt;span&gt;{&lt;/span&gt;&lt;br&gt;&lt;/div&gt;&lt;div&gt;&lt;span style=&quot;white-space: pre&quot;&gt;	&lt;/span&gt;Uid=10086&lt;/div&gt;&lt;div&gt;&lt;span style=&quot;white-space: pre&quot;&gt;	&lt;/span&gt;State=0&lt;/div&gt;&lt;div&gt;}&lt;/div&gt;" style="text;html=1;strokeColor=none;fillColor=none;align=left;verticalAlign=middle;whiteSpace=wrap;rounded=0;fontSize=24;fontColor=#000000;" vertex="1" parent="1">
          <mxGeometry x="410" y="378" width="310" height="240" as="geometry"/>
        </mxCell>
        <mxCell id="7bUrUw1-GXe85dg-xqV_-6" value="&lt;font color=&quot;#ff3333&quot;&gt;1.1 发起约跑：&lt;br&gt;创建房间锁&lt;/font&gt;" style="text;html=1;strokeColor=none;fillColor=none;align=center;verticalAlign=middle;whiteSpace=wrap;rounded=0;fontSize=24;fontColor=#000000;" vertex="1" parent="1">
          <mxGeometry x="310" y="140" width="370" height="20" as="geometry"/>
        </mxCell>
        <mxCell id="7bUrUw1-GXe85dg-xqV_-8" value="&lt;div style=&quot;text-align: left&quot;&gt;&lt;span style=&quot;color: rgb(255 , 51 , 51)&quot;&gt;1.2 发起约跑：&lt;/span&gt;&lt;/div&gt;&lt;div style=&quot;text-align: left&quot;&gt;&lt;span style=&quot;color: rgb(255 , 51 , 51)&quot;&gt;创建房间实体，&lt;/span&gt;&lt;/div&gt;&lt;font color=&quot;#ff3333&quot;&gt;&lt;div style=&quot;text-align: left&quot;&gt;&lt;span&gt;并初始化房客信息&lt;/span&gt;&lt;/div&gt;&lt;/font&gt;" style="text;html=1;strokeColor=none;fillColor=none;align=center;verticalAlign=middle;whiteSpace=wrap;rounded=0;fontSize=24;fontColor=#000000;" vertex="1" parent="1">
          <mxGeometry x="310" y="318" width="370" height="20" as="geometry"/>
        </mxCell>
        <mxCell id="7bUrUw1-GXe85dg-xqV_-10" value="&lt;div style=&quot;text-align: left&quot;&gt;&lt;font color=&quot;#ff3333&quot;&gt;2.1 开始跑步:&lt;/font&gt;&lt;/div&gt;&lt;div style=&quot;text-align: left&quot;&gt;&lt;font color=&quot;#ff3333&quot;&gt;生成一条跑步记录&lt;/font&gt;&lt;/div&gt;" style="text;html=1;strokeColor=none;fillColor=none;align=center;verticalAlign=middle;whiteSpace=wrap;rounded=0;fontSize=24;fontColor=#000000;" vertex="1" parent="1">
          <mxGeometry x="1540" y="125" width="370" height="20" as="geometry"/>
        </mxCell>
        <mxCell id="7bUrUw1-GXe85dg-xqV_-13" value="&lt;div&gt;跑步记录 {&lt;/div&gt;&lt;div&gt;&lt;span style=&quot;white-space: pre&quot;&gt;	&lt;/span&gt;runId: run1&lt;/div&gt;&lt;div&gt;&lt;span style=&quot;white-space: pre&quot;&gt;	&lt;/span&gt;uid: 10086&lt;/div&gt;&lt;div&gt;&lt;span style=&quot;white-space: pre&quot;&gt;	&lt;/span&gt;runType: 约跑&lt;/div&gt;&lt;div&gt;&lt;span style=&quot;white-space: pre&quot;&gt;	&lt;/span&gt;是否已结束：否&lt;/div&gt;&lt;div&gt;&lt;span style=&quot;white-space: pre&quot;&gt;	&lt;/span&gt;是否已过期：否&lt;/div&gt;&lt;div&gt;}&lt;/div&gt;" style="text;html=1;strokeColor=none;fillColor=none;align=left;verticalAlign=middle;whiteSpace=wrap;rounded=0;fontSize=24;fontColor=#000000;" vertex="1" parent="1">
          <mxGeometry x="1630" y="150" width="310" height="240" as="geometry"/>
        </mxCell>
        <mxCell id="7bUrUw1-GXe85dg-xqV_-14" value="&lt;div&gt;redis.HGet()+HSet()&lt;/div&gt;&lt;div&gt;房客信息{&lt;/div&gt;&lt;div&gt;&lt;span style=&quot;white-space: pre&quot;&gt;	&lt;/span&gt;Uid=10086&lt;/div&gt;&lt;div&gt;&lt;span style=&quot;white-space: pre&quot;&gt;	&lt;/span&gt;&lt;b&gt;&lt;u&gt;State=1&lt;/u&gt;&lt;/b&gt;&lt;/div&gt;&lt;div&gt;&lt;span style=&quot;white-space: pre&quot;&gt;	&lt;/span&gt;&lt;b&gt;&lt;u&gt;RunId=10086&lt;/u&gt;&lt;/b&gt;&lt;/div&gt;&lt;div&gt;}&lt;/div&gt;" style="text;html=1;strokeColor=none;fillColor=none;align=left;verticalAlign=middle;whiteSpace=wrap;rounded=0;fontSize=24;fontColor=#000000;" vertex="1" parent="1">
          <mxGeometry x="740" y="348" width="310" height="240" as="geometry"/>
        </mxCell>
        <mxCell id="7bUrUw1-GXe85dg-xqV_-15" value="&lt;div style=&quot;text-align: left&quot;&gt;&lt;font color=&quot;#ff3333&quot;&gt;2.2开始跑步：&lt;/font&gt;&lt;/div&gt;&lt;div style=&quot;text-align: left&quot;&gt;&lt;font color=&quot;#ff3333&quot;&gt;更新房客信息&lt;/font&gt;&lt;/div&gt;" style="text;html=1;strokeColor=none;fillColor=none;align=center;verticalAlign=middle;whiteSpace=wrap;rounded=0;fontSize=24;fontColor=#000000;" vertex="1" parent="1">
          <mxGeometry x="630" y="302" width="370" height="20" as="geometry"/>
        </mxCell>
        <mxCell id="7bUrUw1-GXe85dg-xqV_-16" value="&lt;div style=&quot;text-align: left&quot;&gt;&lt;font color=&quot;#ff3333&quot;&gt;3.1 结束跑步:&lt;/font&gt;&lt;/div&gt;&lt;div style=&quot;text-align: left&quot;&gt;&lt;font color=&quot;#ff3333&quot;&gt;设置跑步记录状态为&quot;已结束&quot;&lt;/font&gt;&lt;/div&gt;" style="text;html=1;strokeColor=none;fillColor=none;align=center;verticalAlign=middle;whiteSpace=wrap;rounded=0;fontSize=24;fontColor=#000000;" vertex="1" parent="1">
          <mxGeometry x="1880" y="120" width="370" height="20" as="geometry"/>
        </mxCell>
        <mxCell id="7bUrUw1-GXe85dg-xqV_-17" value="&lt;div&gt;跑步记录 {&lt;/div&gt;&lt;div&gt;&lt;span style=&quot;white-space: pre&quot;&gt;	&lt;/span&gt;runId: run1&lt;/div&gt;&lt;div&gt;&lt;span style=&quot;white-space: pre&quot;&gt;	&lt;/span&gt;uid: 10086&lt;/div&gt;&lt;div&gt;&lt;span style=&quot;white-space: pre&quot;&gt;	&lt;/span&gt;runType: 约跑&lt;/div&gt;&lt;div&gt;&lt;span style=&quot;white-space: pre&quot;&gt;	&lt;/span&gt;&lt;i&gt;&lt;b&gt;&lt;u&gt;是否已结束：是&lt;/u&gt;&lt;/b&gt;&lt;/i&gt;&lt;/div&gt;&lt;div&gt;&lt;span style=&quot;white-space: pre&quot;&gt;	&lt;/span&gt;是否已过期：否&lt;/div&gt;&lt;div&gt;}&lt;/div&gt;" style="text;html=1;strokeColor=none;fillColor=none;align=left;verticalAlign=middle;whiteSpace=wrap;rounded=0;fontSize=24;fontColor=#000000;" vertex="1" parent="1">
          <mxGeometry x="1970" y="145" width="310" height="240" as="geometry"/>
        </mxCell>
        <mxCell id="7bUrUw1-GXe85dg-xqV_-18" value="&lt;div&gt;redis.HGet()+HSet()&lt;/div&gt;&lt;div&gt;房客{&lt;/div&gt;&lt;div&gt;&lt;span style=&quot;white-space: pre&quot;&gt;	&lt;/span&gt;Uid=10086&lt;/div&gt;&lt;div&gt;&lt;span style=&quot;white-space: pre&quot;&gt;	&lt;/span&gt;&lt;b&gt;&lt;u&gt;State=2&lt;/u&gt;&lt;/b&gt;&lt;/div&gt;&lt;div&gt;&lt;span style=&quot;white-space: pre&quot;&gt;	&lt;/span&gt;RunId=10086&lt;/div&gt;&lt;div&gt;}&lt;/div&gt;" style="text;html=1;strokeColor=none;fillColor=none;align=left;verticalAlign=middle;whiteSpace=wrap;rounded=0;fontSize=24;fontColor=#000000;" vertex="1" parent="1">
          <mxGeometry x="1020" y="348" width="310" height="240" as="geometry"/>
        </mxCell>
        <mxCell id="7bUrUw1-GXe85dg-xqV_-19" value="&lt;div style=&quot;text-align: left&quot;&gt;&lt;font color=&quot;#ff3333&quot;&gt;3.3 结束跑步：&lt;/font&gt;&lt;/div&gt;&lt;div style=&quot;text-align: left&quot;&gt;&lt;font color=&quot;#ff3333&quot;&gt;更新房客信息&lt;/font&gt;&lt;/div&gt;" style="text;html=1;strokeColor=none;fillColor=none;align=center;verticalAlign=middle;whiteSpace=wrap;rounded=0;fontSize=24;fontColor=#000000;" vertex="1" parent="1">
          <mxGeometry x="920" y="302" width="370" height="20" as="geometry"/>
        </mxCell>
        <mxCell id="7bUrUw1-GXe85dg-xqV_-25" value="约跑信息快照表" style="swimlane;childLayout=stackLayout;horizontal=1;startSize=30;horizontalStack=0;fillColor=#008cff;fontColor=#FFFFFF;rounded=1;fontSize=18;fontStyle=0;strokeWidth=2;resizeParent=0;resizeLast=1;shadow=0;dashed=0;align=center;" vertex="1" parent="1">
          <mxGeometry x="20" y="750" width="360" height="240" as="geometry"/>
        </mxCell>
        <mxCell id="7bUrUw1-GXe85dg-xqV_-26" value="&lt;div style=&quot;font-size: 24px&quot;&gt;&lt;font color=&quot;#000000&quot;&gt;约跑房间号 roomId&lt;/font&gt;&lt;/div&gt;&lt;div style=&quot;font-size: 24px&quot;&gt;&lt;font color=&quot;#000000&quot;&gt;约跑信息(距离，目的地，备注...)&lt;/font&gt;&lt;/div&gt;" style="text;html=1;align=left;verticalAlign=middle;resizable=0;points=[];autosize=1;fontColor=#FF0000;" vertex="1" parent="7bUrUw1-GXe85dg-xqV_-25">
          <mxGeometry y="30" width="360" height="210" as="geometry"/>
        </mxCell>
        <mxCell id="7bUrUw1-GXe85dg-xqV_-32" value="用户约跑历史记录表" style="swimlane;childLayout=stackLayout;horizontal=1;startSize=30;horizontalStack=0;fillColor=#008cff;fontColor=#FFFFFF;rounded=1;fontSize=18;fontStyle=0;strokeWidth=2;resizeParent=0;resizeLast=1;shadow=0;dashed=0;align=center;" vertex="1" parent="1">
          <mxGeometry x="20" y="1110" width="360" height="240" as="geometry"/>
        </mxCell>
        <mxCell id="7bUrUw1-GXe85dg-xqV_-33" value="&lt;div style=&quot;font-size: 24px&quot;&gt;&lt;font color=&quot;#000000&quot;&gt;用户uid&lt;/font&gt;&lt;/div&gt;&lt;div style=&quot;font-size: 24px&quot;&gt;&lt;font color=&quot;#000000&quot;&gt;约跑房间号 roomId&lt;/font&gt;&lt;/div&gt;&lt;div style=&quot;font-size: 24px&quot;&gt;&lt;font color=&quot;#000000&quot;&gt;关联的runId&lt;/font&gt;&lt;/div&gt;" style="text;html=1;align=left;verticalAlign=middle;resizable=0;points=[];autosize=1;fontColor=#FF0000;" vertex="1" parent="7bUrUw1-GXe85dg-xqV_-32">
          <mxGeometry y="30" width="360" height="210" as="geometry"/>
        </mxCell>
        <mxCell id="7bUrUw1-GXe85dg-xqV_-34" value="&lt;div&gt;INSERT INTO t_快照&lt;/div&gt;&lt;div&gt;VALUES(约跑信息...)&lt;/div&gt;" style="text;html=1;strokeColor=none;fillColor=none;align=left;verticalAlign=middle;whiteSpace=wrap;rounded=0;fontSize=24;fontColor=#000000;" vertex="1" parent="1">
          <mxGeometry x="420" y="760" width="310" height="240" as="geometry"/>
        </mxCell>
        <mxCell id="7bUrUw1-GXe85dg-xqV_-35" value="&lt;div style=&quot;text-align: left&quot;&gt;&lt;span style=&quot;color: rgb(255 , 51 , 51)&quot;&gt;1.3 发起约跑：&lt;/span&gt;&lt;/div&gt;&lt;div style=&quot;text-align: left&quot;&gt;&lt;span style=&quot;color: rgb(255 , 51 , 51)&quot;&gt;创建约跑信息快照&lt;/span&gt;&lt;/div&gt;" style="text;html=1;strokeColor=none;fillColor=none;align=center;verticalAlign=middle;whiteSpace=wrap;rounded=0;fontSize=24;fontColor=#000000;" vertex="1" parent="1">
          <mxGeometry x="330" y="810" width="370" height="20" as="geometry"/>
        </mxCell>
        <mxCell id="7bUrUw1-GXe85dg-xqV_-37" value="&lt;div&gt;INSERT INTO t_约跑记录&lt;/div&gt;&lt;div&gt;(Uid, roomId, runId)&lt;/div&gt;" style="text;html=1;strokeColor=none;fillColor=none;align=left;verticalAlign=middle;whiteSpace=wrap;rounded=0;fontSize=24;fontColor=#000000;" vertex="1" parent="1">
          <mxGeometry x="420" y="1120" width="310" height="240" as="geometry"/>
        </mxCell>
        <mxCell id="7bUrUw1-GXe85dg-xqV_-38" value="&lt;div style=&quot;text-align: left&quot;&gt;&lt;font color=&quot;#ff3333&quot;&gt;3.4 结束跑步：&lt;/font&gt;&lt;/div&gt;&lt;div style=&quot;text-align: left&quot;&gt;&lt;font color=&quot;#ff3333&quot;&gt;生成用户约跑历史记录&lt;/font&gt;&lt;/div&gt;" style="text;html=1;strokeColor=none;fillColor=none;align=center;verticalAlign=middle;whiteSpace=wrap;rounded=0;fontSize=24;fontColor=#000000;" vertex="1" parent="1">
          <mxGeometry x="360" y="1150" width="370" height="20" as="geometry"/>
        </mxCell>
        <mxCell id="7bUrUw1-GXe85dg-xqV_-39" value="redis.Del(key=10086)" style="text;html=1;strokeColor=none;fillColor=none;align=left;verticalAlign=middle;whiteSpace=wrap;rounded=0;fontSize=24;fontColor=#000000;" vertex="1" parent="1">
          <mxGeometry x="1010" y="140" width="210" height="130" as="geometry"/>
        </mxCell>
        <mxCell id="7bUrUw1-GXe85dg-xqV_-40" value="&lt;div style=&quot;text-align: left&quot;&gt;&lt;font color=&quot;#ff3333&quot;&gt;3.2 结束跑步：&lt;/font&gt;&lt;/div&gt;&lt;div style=&quot;text-align: left&quot;&gt;&lt;font color=&quot;#ff3333&quot;&gt;删除房间锁&lt;/font&gt;&lt;/div&gt;" style="text;html=1;strokeColor=none;fillColor=none;align=center;verticalAlign=middle;whiteSpace=wrap;rounded=0;fontSize=24;fontColor=#000000;" vertex="1" parent="1">
          <mxGeometry x="910" y="140" width="370" height="20" as="geometry"/>
        </mxCell>
        <mxCell id="7bUrUw1-GXe85dg-xqV_-50" value="" style="shape=ext;rounded=1;html=1;whiteSpace=wrap;dashed=1;dashPattern=1 4;strokeColor=#000000;fillColor=none;fontSize=16;fontColor=#FF0000;strokeWidth=3;" vertex="1" parent="1">
          <mxGeometry x="-20" y="1095" width="1300" height="270" as="geometry"/>
        </mxCell>
      </root>
    </mxGraphModel>
  </diagram>
</mxfile>
